<mxfile host="app.diagrams.net" modified="2023-11-03T01:59:37.348Z" agent="Mozilla/5.0 (Macintosh; Intel Mac OS X 10_15_7) AppleWebKit/537.36 (KHTML, like Gecko) Chrome/118.0.0.0 Safari/537.36" etag="qRcKQ5tfVEouRREBZVIi" version="22.0.8" type="device">
  <diagram name="Page-1" id="JXqRYyaFR5PvzBcA_aFv">
    <mxGraphModel dx="1434" dy="844" grid="1" gridSize="10" guides="1" tooltips="1" connect="1" arrows="1" fold="1" page="1" pageScale="1" pageWidth="827" pageHeight="1169" math="0" shadow="0">
      <root>
        <mxCell id="0" />
        <mxCell id="1" parent="0" />
        <mxCell id="nOgva30NJ3S6iqEnW1f--2" value="AWS Account" style="points=[[0,0],[0.25,0],[0.5,0],[0.75,0],[1,0],[1,0.25],[1,0.5],[1,0.75],[1,1],[0.75,1],[0.5,1],[0.25,1],[0,1],[0,0.75],[0,0.5],[0,0.25]];outlineConnect=0;gradientColor=none;html=1;whiteSpace=wrap;fontSize=12;fontStyle=0;container=1;pointerEvents=0;collapsible=0;recursiveResize=0;shape=mxgraph.aws4.group;grIcon=mxgraph.aws4.group_account;strokeColor=#CD2264;fillColor=none;verticalAlign=top;align=left;spacingLeft=30;fontColor=#CD2264;dashed=0;" vertex="1" parent="1">
          <mxGeometry x="120" y="340" width="870" height="540" as="geometry" />
        </mxCell>
        <mxCell id="nOgva30NJ3S6iqEnW1f--15" value="" style="sketch=0;outlineConnect=0;fontColor=#232F3E;gradientColor=none;fillColor=#DD344C;strokeColor=none;dashed=0;verticalLabelPosition=bottom;verticalAlign=top;align=center;html=1;fontSize=12;fontStyle=0;aspect=fixed;pointerEvents=1;shape=mxgraph.aws4.role;" vertex="1" parent="nOgva30NJ3S6iqEnW1f--2">
          <mxGeometry x="810" y="130" width="53.18" height="30" as="geometry" />
        </mxCell>
        <mxCell id="nOgva30NJ3S6iqEnW1f--3" value="Region" style="points=[[0,0],[0.25,0],[0.5,0],[0.75,0],[1,0],[1,0.25],[1,0.5],[1,0.75],[1,1],[0.75,1],[0.5,1],[0.25,1],[0,1],[0,0.75],[0,0.5],[0,0.25]];outlineConnect=0;gradientColor=none;html=1;whiteSpace=wrap;fontSize=12;fontStyle=0;container=1;pointerEvents=0;collapsible=0;recursiveResize=0;shape=mxgraph.aws4.group;grIcon=mxgraph.aws4.group_region;strokeColor=#147EBA;fillColor=none;verticalAlign=top;align=left;spacingLeft=30;fontColor=#147EBA;dashed=1;" vertex="1" parent="1">
          <mxGeometry x="150" y="370" width="770" height="490" as="geometry" />
        </mxCell>
        <mxCell id="nOgva30NJ3S6iqEnW1f--14" value="" style="sketch=0;outlineConnect=0;fontColor=#232F3E;gradientColor=none;fillColor=#7AA116;strokeColor=none;dashed=0;verticalLabelPosition=bottom;verticalAlign=top;align=center;html=1;fontSize=12;fontStyle=0;aspect=fixed;pointerEvents=1;shape=mxgraph.aws4.bucket;" vertex="1" parent="nOgva30NJ3S6iqEnW1f--3">
          <mxGeometry x="700" y="199" width="51.92" height="54" as="geometry" />
        </mxCell>
        <mxCell id="nOgva30NJ3S6iqEnW1f--4" value="VPC" style="points=[[0,0],[0.25,0],[0.5,0],[0.75,0],[1,0],[1,0.25],[1,0.5],[1,0.75],[1,1],[0.75,1],[0.5,1],[0.25,1],[0,1],[0,0.75],[0,0.5],[0,0.25]];outlineConnect=0;gradientColor=none;html=1;whiteSpace=wrap;fontSize=12;fontStyle=0;container=1;pointerEvents=0;collapsible=0;recursiveResize=0;shape=mxgraph.aws4.group;grIcon=mxgraph.aws4.group_vpc;strokeColor=#248814;fillColor=none;verticalAlign=top;align=left;spacingLeft=30;fontColor=#AAB7B8;dashed=0;" vertex="1" parent="1">
          <mxGeometry x="180" y="400" width="670" height="450" as="geometry" />
        </mxCell>
        <mxCell id="nOgva30NJ3S6iqEnW1f--8" value="Auto Scaling group" style="points=[[0,0],[0.25,0],[0.5,0],[0.75,0],[1,0],[1,0.25],[1,0.5],[1,0.75],[1,1],[0.75,1],[0.5,1],[0.25,1],[0,1],[0,0.75],[0,0.5],[0,0.25]];outlineConnect=0;gradientColor=none;html=1;whiteSpace=wrap;fontSize=12;fontStyle=0;container=1;pointerEvents=0;collapsible=0;recursiveResize=0;shape=mxgraph.aws4.groupCenter;grIcon=mxgraph.aws4.group_auto_scaling_group;grStroke=1;strokeColor=#D86613;fillColor=none;verticalAlign=top;align=center;fontColor=#D86613;dashed=1;spacingTop=25;movableLabel=0;" vertex="1" parent="nOgva30NJ3S6iqEnW1f--4">
          <mxGeometry x="20" y="30" width="610" height="410" as="geometry">
            <mxPoint x="4" y="-50" as="offset" />
          </mxGeometry>
        </mxCell>
        <mxCell id="nOgva30NJ3S6iqEnW1f--12" value="Private subnet" style="points=[[0,0],[0.25,0],[0.5,0],[0.75,0],[1,0],[1,0.25],[1,0.5],[1,0.75],[1,1],[0.75,1],[0.5,1],[0.25,1],[0,1],[0,0.75],[0,0.5],[0,0.25]];outlineConnect=0;gradientColor=none;html=1;whiteSpace=wrap;fontSize=12;fontStyle=0;container=1;pointerEvents=0;collapsible=0;recursiveResize=0;shape=mxgraph.aws4.group;grIcon=mxgraph.aws4.group_security_group;grStroke=0;strokeColor=#147EBA;fillColor=#E6F2F8;verticalAlign=top;align=left;spacingLeft=30;fontColor=#147EBA;dashed=0;" vertex="1" parent="nOgva30NJ3S6iqEnW1f--8">
          <mxGeometry x="321" y="100" width="260" height="190" as="geometry" />
        </mxCell>
        <mxCell id="nOgva30NJ3S6iqEnW1f--13" value="" style="sketch=0;points=[[0,0,0],[0.25,0,0],[0.5,0,0],[0.75,0,0],[1,0,0],[0,1,0],[0.25,1,0],[0.5,1,0],[0.75,1,0],[1,1,0],[0,0.25,0],[0,0.5,0],[0,0.75,0],[1,0.25,0],[1,0.5,0],[1,0.75,0]];outlineConnect=0;fontColor=#232F3E;fillColor=#ED7100;strokeColor=#ffffff;dashed=0;verticalLabelPosition=bottom;verticalAlign=top;align=center;html=1;fontSize=12;fontStyle=0;aspect=fixed;shape=mxgraph.aws4.resourceIcon;resIcon=mxgraph.aws4.ec2;" vertex="1" parent="nOgva30NJ3S6iqEnW1f--12">
          <mxGeometry x="170" y="7" width="58" height="58" as="geometry" />
        </mxCell>
        <mxCell id="nOgva30NJ3S6iqEnW1f--26" value="" style="rounded=1;arcSize=10;dashed=1;strokeColor=#F59D56;fillColor=none;gradientColor=none;dashPattern=8 4;strokeWidth=2;" vertex="1" parent="nOgva30NJ3S6iqEnW1f--8">
          <mxGeometry x="311" y="60" width="280" height="250" as="geometry" />
        </mxCell>
        <mxCell id="nOgva30NJ3S6iqEnW1f--28" value="AZ 2" style="text;strokeColor=none;align=center;fillColor=none;html=1;verticalAlign=middle;whiteSpace=wrap;rounded=0;fontColor=#FF8000;" vertex="1" parent="nOgva30NJ3S6iqEnW1f--8">
          <mxGeometry x="421" y="60" width="60" height="30" as="geometry" />
        </mxCell>
        <mxCell id="nOgva30NJ3S6iqEnW1f--6" value="Private subnet" style="points=[[0,0],[0.25,0],[0.5,0],[0.75,0],[1,0],[1,0.25],[1,0.5],[1,0.75],[1,1],[0.75,1],[0.5,1],[0.25,1],[0,1],[0,0.75],[0,0.5],[0,0.25]];outlineConnect=0;gradientColor=none;html=1;whiteSpace=wrap;fontSize=12;fontStyle=0;container=1;pointerEvents=0;collapsible=0;recursiveResize=0;shape=mxgraph.aws4.group;grIcon=mxgraph.aws4.group_security_group;grStroke=0;strokeColor=#147EBA;fillColor=#E6F2F8;verticalAlign=top;align=left;spacingLeft=30;fontColor=#147EBA;dashed=0;" vertex="1" parent="nOgva30NJ3S6iqEnW1f--8">
          <mxGeometry x="20" y="100" width="270" height="190" as="geometry" />
        </mxCell>
        <mxCell id="nOgva30NJ3S6iqEnW1f--9" value="" style="sketch=0;points=[[0,0,0],[0.25,0,0],[0.5,0,0],[0.75,0,0],[1,0,0],[0,1,0],[0.25,1,0],[0.5,1,0],[0.75,1,0],[1,1,0],[0,0.25,0],[0,0.5,0],[0,0.75,0],[1,0.25,0],[1,0.5,0],[1,0.75,0]];outlineConnect=0;fontColor=#232F3E;fillColor=#ED7100;strokeColor=#ffffff;dashed=0;verticalLabelPosition=bottom;verticalAlign=top;align=center;html=1;fontSize=12;fontStyle=0;aspect=fixed;shape=mxgraph.aws4.resourceIcon;resIcon=mxgraph.aws4.ec2;" vertex="1" parent="nOgva30NJ3S6iqEnW1f--6">
          <mxGeometry x="170" y="7" width="58" height="58" as="geometry" />
        </mxCell>
        <mxCell id="nOgva30NJ3S6iqEnW1f--27" value="AZ 1" style="text;strokeColor=none;align=center;fillColor=none;html=1;verticalAlign=middle;whiteSpace=wrap;rounded=0;fontColor=#FF8000;" vertex="1" parent="nOgva30NJ3S6iqEnW1f--6">
          <mxGeometry x="110" y="-40" width="60" height="30" as="geometry" />
        </mxCell>
        <mxCell id="nOgva30NJ3S6iqEnW1f--25" value="" style="rounded=1;arcSize=10;dashed=1;strokeColor=#F59D56;fillColor=none;gradientColor=none;dashPattern=8 4;strokeWidth=2;" vertex="1" parent="nOgva30NJ3S6iqEnW1f--8">
          <mxGeometry x="15" y="60" width="280" height="250" as="geometry" />
        </mxCell>
        <mxCell id="nOgva30NJ3S6iqEnW1f--17" style="edgeStyle=orthogonalEdgeStyle;rounded=0;orthogonalLoop=1;jettySize=auto;html=1;exitX=1;exitY=0.25;exitDx=0;exitDy=0;" edge="1" parent="1" source="nOgva30NJ3S6iqEnW1f--8" target="nOgva30NJ3S6iqEnW1f--15">
          <mxGeometry relative="1" as="geometry">
            <Array as="points">
              <mxPoint x="835" y="533" />
              <mxPoint x="835" y="430" />
              <mxPoint x="957" y="430" />
            </Array>
          </mxGeometry>
        </mxCell>
        <mxCell id="nOgva30NJ3S6iqEnW1f--18" style="edgeStyle=orthogonalEdgeStyle;rounded=0;orthogonalLoop=1;jettySize=auto;html=1;" edge="1" parent="1" source="nOgva30NJ3S6iqEnW1f--15" target="nOgva30NJ3S6iqEnW1f--14">
          <mxGeometry relative="1" as="geometry">
            <Array as="points">
              <mxPoint x="957" y="550" />
              <mxPoint x="876" y="550" />
            </Array>
          </mxGeometry>
        </mxCell>
        <mxCell id="nOgva30NJ3S6iqEnW1f--19" value="On-Premise" style="sketch=0;outlineConnect=0;gradientColor=none;html=1;whiteSpace=wrap;fontSize=12;fontStyle=0;shape=mxgraph.aws4.group;grIcon=mxgraph.aws4.group_on_premise;strokeColor=#858B94;fillColor=none;verticalAlign=top;align=left;spacingLeft=30;fontColor=#858B94;dashed=0;" vertex="1" parent="1">
          <mxGeometry x="1184" y="340" width="230" height="530" as="geometry" />
        </mxCell>
        <mxCell id="nOgva30NJ3S6iqEnW1f--20" value="Customer&#xa;gateway" style="sketch=0;outlineConnect=0;fontColor=#232F3E;gradientColor=none;strokeColor=#232F3E;fillColor=#ffffff;dashed=0;verticalLabelPosition=bottom;verticalAlign=top;align=center;html=1;fontSize=12;fontStyle=0;aspect=fixed;shape=mxgraph.aws4.resourceIcon;resIcon=mxgraph.aws4.customer_gateway;" vertex="1" parent="1">
          <mxGeometry x="1154" y="569" width="60" height="60" as="geometry" />
        </mxCell>
        <mxCell id="nOgva30NJ3S6iqEnW1f--22" style="edgeStyle=orthogonalEdgeStyle;rounded=0;orthogonalLoop=1;jettySize=auto;html=1;" edge="1" parent="1" source="nOgva30NJ3S6iqEnW1f--21" target="nOgva30NJ3S6iqEnW1f--20">
          <mxGeometry relative="1" as="geometry" />
        </mxCell>
        <mxCell id="nOgva30NJ3S6iqEnW1f--23" style="edgeStyle=orthogonalEdgeStyle;rounded=0;orthogonalLoop=1;jettySize=auto;html=1;jumpStyle=none;" edge="1" parent="1" source="nOgva30NJ3S6iqEnW1f--21" target="nOgva30NJ3S6iqEnW1f--24">
          <mxGeometry relative="1" as="geometry">
            <mxPoint x="1050" y="730" as="targetPoint" />
            <Array as="points">
              <mxPoint x="1010" y="599" />
              <mxPoint x="1010" y="710" />
            </Array>
          </mxGeometry>
        </mxCell>
        <mxCell id="nOgva30NJ3S6iqEnW1f--21" value="" style="sketch=0;points=[[0,0,0],[0.25,0,0],[0.5,0,0],[0.75,0,0],[1,0,0],[0,1,0],[0.25,1,0],[0.5,1,0],[0.75,1,0],[1,1,0],[0,0.25,0],[0,0.5,0],[0,0.75,0],[1,0.25,0],[1,0.5,0],[1,0.75,0]];outlineConnect=0;fontColor=#232F3E;fillColor=#8C4FFF;strokeColor=#ffffff;dashed=0;verticalLabelPosition=bottom;verticalAlign=top;align=center;html=1;fontSize=12;fontStyle=0;aspect=fixed;shape=mxgraph.aws4.resourceIcon;resIcon=mxgraph.aws4.site_to_site_vpn;" vertex="1" parent="1">
          <mxGeometry x="1040" y="560" width="78" height="78" as="geometry" />
        </mxCell>
        <mxCell id="nOgva30NJ3S6iqEnW1f--24" value="Virtual Private &lt;br&gt;Gateway" style="sketch=0;outlineConnect=0;fontColor=#232F3E;gradientColor=none;strokeColor=#232F3E;fillColor=#ffffff;dashed=0;verticalLabelPosition=bottom;verticalAlign=top;align=center;html=1;fontSize=12;fontStyle=0;aspect=fixed;shape=mxgraph.aws4.resourceIcon;resIcon=mxgraph.aws4.vpn_gateway;" vertex="1" parent="1">
          <mxGeometry x="820" y="680" width="60" height="60" as="geometry" />
        </mxCell>
      </root>
    </mxGraphModel>
  </diagram>
</mxfile>
